<svg xmlns="http://www.w3.org/2000/svg" viewBox="0 0 700 500">

  <defs>
    <linearGradient id="gold" x1="0" y1="0" x2="0" y2="1">
      <stop offset="0" stop-color="#f9e08a"/>
      <stop offset="0.45" stop-color="#f0c755"/>
      <stop offset="0.5" stop-color="#eab228"/>
      <stop offset="1" stop-color="#96561a"/>
    </linearGradient>
    <linearGradient id="plate" x1="0" y1="0" x2="1" y2="1">
      <stop offset="0" stop-color="#16171c"/>
      <stop offset="0.5" stop-color="#0a0b0e"/>
      <stop offset="1" stop-color="#1c1d24"/>
    </linearGradient>
    <linearGradient id="sheen" x1="0" y1="0" x2="1" y2="1">
      <stop offset="0" stop-color="#ffffff" stop-opacity="0.16"/>
      <stop offset="0.35" stop-color="#ffffff" stop-opacity="0.02"/>
      <stop offset="1" stop-color="#ffffff" stop-opacity="0"/>
    </linearGradient>
  </defs>
<rect x="6" y="6" width="688" height="488" rx="18" fill="url(#plate)" stroke="url(#gold)" stroke-width="2.5"/>
<rect x="6" y="6" width="688" height="488" rx="18" fill="url(#sheen)"/>

    
  <g transform="translate(18,18) scale(0.7,0.7)" fill="url(#gold)">
    <path d="M0 60 Q0 8 60 4 Q30 14 22 34 Q46 26 66 30 Q40 38 30 52 Q18 68 16 96 Q10 74 0 60Z"/>
    <circle cx="52" cy="52" r="5"/>
  </g>
  <g transform="translate(682,18) scale(-0.7,0.7)" fill="url(#gold)">
    <path d="M0 60 Q0 8 60 4 Q30 14 22 34 Q46 26 66 30 Q40 38 30 52 Q18 68 16 96 Q10 74 0 60Z"/>
    <circle cx="52" cy="52" r="5"/>
  </g>
  <g transform="translate(18,482) scale(0.7,-0.7)" fill="url(#gold)">
    <path d="M0 60 Q0 8 60 4 Q30 14 22 34 Q46 26 66 30 Q40 38 30 52 Q18 68 16 96 Q10 74 0 60Z"/>
    <circle cx="52" cy="52" r="5"/>
  </g>
  <g transform="translate(682,482) scale(-0.7,-0.7)" fill="url(#gold)">
    <path d="M0 60 Q0 8 60 4 Q30 14 22 34 Q46 26 66 30 Q40 38 30 52 Q18 68 16 96 Q10 74 0 60Z"/>
    <circle cx="52" cy="52" r="5"/>
  </g>
    <text x="350" y="90" font-size="44" font-weight="400" fill="url(#gold)" text-anchor="middle" font-family="serif" >﷽</text>
    <text x="350" y="200" font-size="64" font-weight="700" fill="url(#gold)" text-anchor="middle" font-family="'Hind Siliguri','Noto Sans Bengali',sans-serif">শান্তি নিবাস</text>
    <text x="350" y="265" font-size="28" font-weight="600" fill="url(#gold)" text-anchor="middle" font-family="'Hind Siliguri','Noto Sans Bengali',sans-serif">মোঃ আব্দুর রহমান</text>
    <text x="350" y="320" font-size="24" font-weight="500" fill="url(#gold)" text-anchor="middle" font-family="'Hind Siliguri','Noto Sans Bengali',sans-serif">বাড়ি নং ১২, রোড নং ৫</text>
    <text x="350" y="365" font-size="24" font-weight="500" fill="url(#gold)" text-anchor="middle" font-family="'Hind Siliguri','Noto Sans Bengali',sans-serif">ধানমন্ডি, ঢাকা</text>
    <text x="350" y="435" font-size="20" font-weight="400" fill="url(#gold)" text-anchor="middle" font-family="'Hind Siliguri','Noto Sans Bengali',sans-serif">স্থাপিতঃ ২০২৫ ইং</text>
  
</svg>